Coordinates
version=1
nRows=8
nColumns=28
inDegrees=yes

Units are S.I. units (second, meters, Newtons, ...)
Angles are in degrees.

endheader
time	pelvis_tilt	pelvis_list	pelvis_rotation	pelvis_tx	pelvis_ty	pelvis_tz	hip_flexion_r	hip_adduction_r	hip_rotation_r	knee_angle_r	ankle_angle_r	subtalar_angle_r	mtp_angle_r	hip_flexion_l	hip_adduction_l	hip_rotation_l	knee_angle_l	socket_flexion	socket_adduction	socket_rotation	socket_tx	socket_ty	socket_tz	foot_flex	lumbar_extension	lumbar_bending	lumbar_rotation
      0.95000000	      4.77775731	     -2.73405982	     -5.03560277	      0.42326514	      1.03916646	      0.33939314	     -2.15157982	      7.33884003	      0.70650475	    -15.72369192	     10.68065623	     -6.65772380	      7.24444514	      3.32912922	     -7.88617712	     -7.03152715	    -59.12686793	     -8.97876410	      0.00000000	      0.00000000	      0.00000000	      0.00000000	      0.00000000	     -0.32062479	    -12.13437358	      1.68028513	      7.01837633
      0.95416667	      4.78125921	     -2.58167856	     -5.28944588	      0.42800485	      1.04003382	      0.33999622	     -2.61134138	      7.10789526	      0.74793296	    -15.39159890	     10.60575909	     -6.31389377	      7.34120257	      3.85735918	     -7.73423828	     -7.01932691	    -58.59206683	     -8.90220147	      0.00000000	      0.00000000	      0.00000000	      0.00000000	      0.00000000	     -0.32788971	    -12.18140507	      1.43602870	      7.23991004
      0.95833333	      4.77460506	     -2.43788231	     -5.54399553	      0.43274966	      1.04084526	      0.34057637	     -3.05909403	      6.88226063	      0.78225977	    -15.05747356	     10.52303322	     -5.96438336	      7.44085064	      4.37694530	     -7.58951001	     -7.00163493	    -58.00318683	     -8.81273964	      0.00000000	      0.00000000	      0.00000000	      0.00000000	      0.00000000	     -0.32571914	    -12.21569189	      1.19984643	      7.46208335
      0.96250000	      5.00650104	     -2.14924449	     -5.94150767	      0.43739605	      1.04191206	      0.34129056	     -3.61294385	      6.41150978	      0.59929036	    -14.97494160	     10.55742573	     -5.09012764	      8.19175522	      4.54452851	     -7.25749947	     -7.17125805	    -57.19676970	     -8.63424981	      0.00000000	      0.00000000	      0.00000000	      0.00000000	      0.00000000	     -0.26796322	    -12.51926846	      0.72365648	      8.01095531
      0.96666667	      5.01888526	     -2.17125448	     -6.19252485	      0.44170372	      1.04241104	      0.34178474	     -3.92369305	      6.35367985	      0.54350261	    -14.94996185	     10.55458447	     -5.06093502	      8.20090947	      5.12691437	     -7.30897240	     -7.12262190	    -56.85413204	     -8.74524318	      0.00000000	      0.00000000	      0.00000000	      0.00000000	      0.00000000	     -0.26462392	    -12.67267154	      0.71065769	      8.02111890
      0.97083333	      4.88385201	     -2.07379566	     -6.30275573	      0.44663531	      1.04309033	      0.34220849	     -4.39277507	      6.22800541	      0.71489459	    -14.30753499	     10.43197342	     -4.69195388	      8.25508047	      5.75106498	     -7.20505024	     -6.91431737	    -56.03975901	     -8.54263377	      0.00000000	      0.00000000	      0.00000000	      0.00000000	      0.00000000	     -0.36002914	    -12.51934983	      0.57146956	      8.15920485
      0.97500000	      4.81002647	     -1.93949022	     -6.50323282	      0.45142286	      1.04362183	      0.34273084	     -4.80007849	      6.02150992	      0.75126918	    -13.89044966	     10.24667517	     -4.42276770	      8.30595870	      6.30516009	     -7.07446054	     -6.83584945	    -55.30853519	     -8.42647340	      0.00000000	      0.00000000	      0.00000000	      0.00000000	      0.00000000	     -0.29178735	    -12.46848020	      0.36496146	      8.29991036
      0.97916667	      4.77053934	     -1.87610198	     -6.71364159	      0.45594298	      1.04411207	      0.34321489	     -5.16164208	      5.88880122	      0.78129834	    -13.63250443	     10.16610630	     -4.22820440	      8.36789430	      6.83878270	     -7.01567062	     -6.73182818	    -54.58806262	     -8.33430336	      0.00000000	      0.00000000	      0.00000000	      0.00000000	      0.00000000	     -0.32411712	    -12.50091880	      0.24221517	      8.42382976
